<svg width="288" height="396" viewBox="0 0 288 396" fill="none" xmlns="http://www.w3.org/2000/svg">
<path fill-rule="evenodd" clip-rule="evenodd" d="M128.5 34.2021C65.9273 34.2021 15.2021 84.9273 15.2021 147.5C15.2021 210.073 65.9273 260.798 128.5 260.798C191.073 260.798 241.798 210.073 241.798 147.5C241.798 84.9273 191.073 34.2021 128.5 34.2021ZM-31 147.5C-31 59.4106 40.4106 -12 128.5 -12C131.473 -12 134.428 -11.9186 137.361 -11.758V-12H288V32.3056H238.82C269.128 61.3389 288 102.216 288 147.5C288 235.589 216.589 307 128.5 307C40.4106 307 -31 235.589 -31 147.5ZM-0.0980873 331.05C-13.2965 350.941 -13.2871 350.948 -13.2772 350.955L-13.2549 350.971L-13.2014 351.01L-13.0585 351.113C-12.9473 351.193 -12.8046 351.295 -12.6306 351.417C-12.2828 351.663 -11.8102 351.992 -11.2167 352.397C-10.0301 353.205 -8.358 354.315 -6.23211 355.655C-1.98405 358.331 4.09868 361.938 11.7616 365.893C27.0415 373.78 48.8687 383.191 75.1565 389.279C128.083 401.537 199.479 400.282 270.278 346.162L243.052 307C185.469 351.018 128.484 351.998 85.1242 341.956C63.269 336.894 44.9769 329.021 32.1734 322.412C25.7946 319.12 20.8445 316.175 17.5702 314.112C15.9349 313.082 14.7234 312.275 13.9668 311.76C13.5887 311.502 13.3247 311.318 13.1789 311.215C13.1534 311.197 13.1316 311.181 13.1134 311.168C13.0794 311.144 13.058 311.129 13.0494 311.123L13.0521 311.125L13.0705 311.138L13.084 311.148C13.0919 311.154 13.1003 311.16 -0.0980873 331.05Z" fill="#BBCCC2" fill-opacity="0.19"/>
</svg>
