<svg width="366" height="525" viewBox="0 0 366 525" fill="none" xmlns="http://www.w3.org/2000/svg">
<path fill-rule="evenodd" clip-rule="evenodd" d="M145.475 0C32.5587 0 -59 91.5346 -59 204.475C-59 317.416 32.5587 408.95 145.475 408.95C258.392 408.95 349.95 317.416 349.95 204.475C349.95 125.669 305.373 57.2856 240.067 23.1481H365.382V0H157.049V0.322089C153.218 0.108315 149.359 0 145.475 0ZM-37.9611 461.284C-43.5772 469.204 -43.5727 469.207 -43.5675 469.211L-43.5536 469.22L-43.5131 469.248L-43.382 469.336C-43.2724 469.409 -43.1183 469.512 -42.9205 469.642C-42.5251 469.903 -41.9547 470.274 -41.215 470.745C-39.7359 471.685 -37.5788 473.023 -34.7886 474.663C-29.2099 477.944 -21.0908 482.441 -10.7909 487.403C9.78935 497.318 39.1889 509.142 74.5086 516.777C145.296 532.078 240.033 530.535 334.518 463.124L322.933 447.53C234.074 510.927 145.468 512.363 78.7484 497.941C45.3144 490.714 17.4192 479.5 -2.10691 470.093C-11.8602 465.395 -19.4971 461.16 -24.6612 458.124C-27.2425 456.606 -29.2034 455.389 -30.4995 454.565C-31.1475 454.152 -31.629 453.839 -31.9385 453.635C-32.0932 453.533 -32.2049 453.458 -32.2729 453.413L-32.342 453.366L-32.3504 453.361C-32.348 453.362 -32.3449 453.364 -37.9611 461.284Z" fill="#699980" fill-opacity="0.07"/>
</svg>
