<svg width="380" height="525" viewBox="0 0 380 525" fill="none" xmlns="http://www.w3.org/2000/svg">
<path fill-rule="evenodd" clip-rule="evenodd" d="M204.475 0C91.5587 0 0 91.5346 0 204.475C0 317.416 91.5587 408.95 204.475 408.95C317.392 408.95 408.95 317.416 408.95 204.475C408.95 125.669 364.373 57.2856 299.067 23.1481H424.382V0H216.049V0.322089C212.218 0.108315 208.359 0 204.475 0ZM21.0389 461.284C15.4228 469.204 15.4273 469.207 15.4325 469.211L15.4464 469.22L15.4869 469.248L15.618 469.336C15.7276 469.409 15.8817 469.512 16.0795 469.642C16.4749 469.903 17.0453 470.274 17.785 470.745C19.2641 471.685 21.4212 473.023 24.2114 474.663C29.7901 477.944 37.9092 482.441 48.2091 487.403C68.7894 497.318 98.1889 509.142 133.509 516.777C204.296 532.078 299.033 530.535 393.518 463.124L381.933 447.53C293.074 510.927 204.468 512.363 137.748 497.941C104.314 490.714 76.4192 479.5 56.8931 470.093C47.1398 465.395 39.5029 461.16 34.3388 458.124C31.7575 456.606 29.7966 455.389 28.5005 454.565C27.8525 454.152 27.371 453.839 27.0615 453.635C26.9068 453.533 26.7951 453.458 26.7271 453.413L26.658 453.366L26.6496 453.361C26.652 453.362 26.6551 453.364 21.0389 461.284Z" fill="#699980" fill-opacity="0.07"/>
</svg>
